# xmcd CD database file
# Copyright (C) 1997 Ti Kan
# 
# Track frame offsets:
#     150
#     23327
#     44091
#     62446
#     79832
#     94047
#     111430
#     132944
#     147832
#     173113
#     187570
#     207918
#     240811
#     257218
#     273774
#     294621
# 
# Disc length: 4355 seconds
# 
# Revision: 1
# Processed by: cddbd v1.4b41PL1 Copyright (c) Steve Scherf et al.
# Submitted via: DiscPlay 4.0.3
# 
DISCID=d5110110
DTITLE=Mix - Ledy In Red (Volume 3)
DYEAR=1900
DGENRE=
TTITLE0=Celine Dion-All by myself
TTITLE1=Roxette-Spending my time
TTITLE2=Korgis-The Manza got to learn sometime
TTITLE3=Joe Coker-Up where my burla belong
TTITLE4=Sandra-Little girl
TTITLE5=Christopher Cross-Arthur's and gousto
TTITLE6=Roxette-Shir queen of rain
TTITLE7=Nika Kosta-On my own
TTITLE8=Duran Duran-Shar information
TTITLE9=Tracy Chapman-Body can maor hold you
TTITLE10=Foreigner-Waiting for a girl like you
TTITLE11=Grover Washington-Just the two of us
TTITLE12=Vaya Con Dios-Time flies
TTITLE13=Alphaville-Forever Crazy (edi)
TTITLE14=Duran Duran-Come on kouba
TTITLE15=Stars Of Bourla-We are the world
EXTD=
EXTT0=
EXTT1=
EXTT2=
EXTT3=
EXTT4=
EXTT5=
EXTT6=
EXTT7=
EXTT8=
EXTT9=
EXTT10=
EXTT11=
EXTT12=
EXTT13=
EXTT14=
EXTT15=
PLAYORDER=
